<?xml version="1.0" standalone="no"?>
<!DOCTYPE svg PUBLIC "-//W3C//DTD SVG 20010904//EN"
 "http://www.w3.org/TR/2001/REC-SVG-20010904/DTD/svg10.dtd">
<svg version="1.0" xmlns="http://www.w3.org/2000/svg"
 width="500.000000pt" height="500.000000pt" viewBox="0 0 500.000000 500.000000"
 preserveAspectRatio="xMidYMid meet">

<g transform="translate(0.000000,500.000000) scale(0.100000,-0.100000)"
fill="#000000" stroke="none">
<path d="M3315 2811 c-89 -25 -152 -60 -215 -118 -196 -181 -199 -511 -5 -708
74 -75 154 -126 360 -226 219 -106 269 -145 280 -222 6 -40 3 -55 -17 -95 -19
-38 -35 -53 -82 -77 -52 -26 -68 -29 -145 -29 -121 1 -180 26 -276 115 -89 83
-103 85 -206 32 -94 -49 -139 -91 -139 -130 0 -69 120 -195 250 -262 129 -67
211 -86 380 -85 129 0 154 3 225 27 163 54 270 142 334 277 36 75 36 76 36
210 0 159 -16 211 -94 313 -73 95 -163 157 -388 267 -111 55 -218 114 -239
132 -62 55 -80 126 -48 193 27 58 46 64 159 53 55 -6 107 -10 115 -10 8 -1 37
-18 64 -39 27 -22 58 -39 68 -39 30 0 132 58 183 102 54 48 58 76 16 139 -52
77 -170 153 -288 183 -82 22 -249 20 -328 -3z m271 -2 c32 -6 63 -14 68 -19 4
-5 -11 -4 -35 2 -24 5 -87 10 -139 9 -82 0 -128 -7 -225 -35 -11 -4 -1 3 21
14 76 36 204 48 310 29z m351 -256 c-3 -10 -5 -4 -5 12 0 17 2 24 5 18 2 -7 2
-21 0 -30z m-950 -105 c-3 -8 -6 -5 -6 6 -1 11 2 17 5 13 3 -3 4 -12 1 -19z
m-10 -140 c-2 -24 -4 -5 -4 42 0 47 2 66 4 43 2 -24 2 -62 0 -85z m310 30 c-2
-13 -4 -3 -4 22 0 25 2 35 4 23 2 -13 2 -33 0 -45z m776 -665 c18 -70 31 -168
18 -138 -5 11 -10 34 -10 52 -1 17 -10 59 -20 92 -10 33 -15 59 -11 56 4 -2
14 -30 23 -62z m-943 -173 c0 -5 -12 -10 -27 -9 -25 0 -26 1 -8 9 27 12 35 12
35 0z m637 -42 c-3 -8 -6 -5 -6 6 -1 11 2 17 5 13 3 -3 4 -12 1 -19z m320 -25
c-3 -10 -5 -2 -5 17 0 19 2 27 5 18 2 -10 2 -26 0 -35z m-10 -45 c-3 -8 -6 -5
-6 6 -1 11 2 17 5 13 3 -3 4 -12 1 -19z m-438 -58 c-31 -18 -138 -29 -195 -20
-31 5 -58 11 -60 13 -2 1 41 1 94 -1 53 -2 108 1 122 7 14 5 32 10 40 10 13 0
13 -1 -1 -9z"/>
<path d="M2303 2810 c-48 -19 -48 -15 -53 -695 l-5 -640 -25 -50 c-31 -63 -72
-85 -155 -85 -78 0 -132 25 -180 83 -21 25 -51 51 -67 58 -26 11 -37 8 -103
-26 -105 -53 -155 -98 -155 -139 0 -70 108 -188 224 -245 93 -45 177 -63 291
-63 287 2 474 152 532 427 15 70 17 158 17 690 1 336 -2 622 -7 637 -12 46
-51 58 -179 57 -62 0 -123 -4 -135 -9z m239 -8 c10 -4 -36 -7 -101 -7 -66 0
-114 3 -108 7 15 9 186 9 209 0z m-272 -1290 l-9 -47 4 49 c3 27 6 317 7 645
l3 596 2 -598 c2 -364 -1 -617 -7 -645z m337 395 c-1 -150 -2 -24 -2 278 0
303 1 425 2 272 2 -153 2 -401 0 -550z m-10 -389 c-2 -13 -4 -5 -4 17 -1 22 1
32 4 23 2 -10 2 -28 0 -40z m-794 -55 c-7 -2 -19 -2 -25 0 -7 3 -2 5 12 5 14
0 19 -2 13 -5z m784 -15 c-3 -8 -6 -5 -6 6 -1 11 2 17 5 13 3 -3 4 -12 1 -19z
m-337 -25 c-11 -17 -11 -17 -6 0 3 10 6 24 7 30 0 9 2 9 5 0 3 -7 0 -20 -6
-30z m-669 -106 c-10 -9 -11 -8 -5 6 3 10 9 15 12 12 3 -3 0 -11 -7 -18z m556
1 c-15 -9 -126 -9 -149 0 -10 4 23 7 71 7 49 0 84 -3 78 -7z"/>
<path d="M650 455 c0 -12 156 -81 260 -115 144 -48 317 -83 530 -109 260 -32
426 -41 865 -47 877 -14 1463 40 1820 166 92 33 210 88 203 95 -2 2 -35 -7
-73 -21 -217 -79 -492 -132 -840 -164 -66 -6 -142 -13 -170 -16 -124 -12
-1131 -16 -1355 -5 -546 28 -904 88 -1187 200 -29 11 -53 19 -53 16z"/>
</g>
</svg>
