<?xml version="1.0" standalone="no"?>
<!DOCTYPE svg PUBLIC "-//W3C//DTD SVG 20010904//EN"
 "http://www.w3.org/TR/2001/REC-SVG-20010904/DTD/svg10.dtd">
<svg version="1.0" xmlns="http://www.w3.org/2000/svg"
 width="500.000000pt" height="500.000000pt" viewBox="0 0 500.000000 500.000000"
 preserveAspectRatio="xMidYMid meet">

<g transform="translate(0.000000,500.000000) scale(0.100000,-0.100000)"
fill="#000000" stroke="none">
<path d="M1180 2918 c-10 -22 -135 -432 -186 -608 -14 -47 -30 -98 -36 -113
-14 -36 -1 -47 60 -47 49 0 45 -7 92 150 18 58 36 116 40 130 5 14 23 72 40
130 39 126 76 249 96 309 18 56 7 71 -52 71 -36 0 -46 -4 -54 -22z"/>
<path d="M3747 2863 c-4 -3 -7 -39 -7 -80 0 -70 -1 -73 -19 -63 -11 5 -34 10
-51 10 -78 0 -100 -44 -100 -199 0 -119 7 -148 41 -180 26 -24 97 -29 117 -9
10 10 14 10 21 0 5 -8 22 -12 42 -10 l34 3 3 268 2 267 -38 0 c-21 0 -42 -3
-45 -7z m-21 -217 c17 -13 19 -27 19 -121 0 -109 -6 -125 -45 -125 -38 0 -45
17 -48 119 -3 90 -2 101 17 120 25 25 31 26 57 7z"/>
<path d="M728 2673 c-65 -64 -118 -124 -118 -133 0 -20 231 -250 252 -250 16
0 58 40 58 56 0 6 -40 49 -90 97 -49 47 -90 90 -90 95 0 5 38 44 85 87 99 91
108 109 71 142 -15 13 -32 23 -38 23 -6 0 -64 -53 -130 -117z"/>
<path d="M1360 2768 c-11 -12 -20 -26 -20 -32 0 -6 41 -52 92 -103 l91 -92
-91 -91 c-51 -50 -92 -97 -92 -104 0 -16 46 -59 58 -55 20 8 252 232 252 244
0 16 -240 255 -257 255 -7 0 -21 -10 -33 -22z"/>
<path d="M1906 2714 c-9 -8 -16 -11 -16 -5 0 6 -18 11 -40 11 l-40 0 0 -196 0
-195 38 3 37 3 5 153 c4 121 8 155 20 162 20 13 33 12 53 -2 14 -11 17 -36 19
-163 l3 -150 38 -3 37 -3 0 171 0 172 -29 29 c-23 22 -39 29 -70 29 -23 0 -46
-7 -55 -16z"/>
<path d="M2512 2714 c-12 -8 -22 -10 -22 -5 0 6 -18 11 -40 11 l-40 0 2 -192
3 -193 38 -3 37 -3 0 144 c0 128 2 147 19 168 19 23 21 23 48 9 l28 -16 3
-152 3 -153 37 3 37 3 3 140 c3 166 -1 199 -33 231 -29 28 -88 32 -123 8z"/>
<path d="M2778 2714 c-46 -25 -58 -61 -58 -179 0 -122 14 -166 59 -189 46 -24
120 -21 153 7 29 25 52 73 42 88 -10 18 -69 10 -82 -11 -16 -27 -68 -27 -82
-1 -5 11 -10 29 -10 40 0 20 6 21 90 21 l90 0 0 75 c0 87 -16 127 -60 150 -37
19 -107 19 -142 -1z m110 -82 c6 -9 12 -26 12 -39 0 -21 -4 -23 -50 -23 -49 0
-50 1 -50 29 0 52 55 73 88 33z"/>
<path d="M3075 2712 c-20 -12 -36 -34 -45 -62 -21 -62 4 -103 90 -150 52 -28
66 -40 68 -62 4 -37 -31 -57 -59 -32 -10 9 -19 23 -19 31 0 9 -13 13 -41 13
l-41 0 7 -36 c11 -59 47 -84 122 -84 86 0 137 69 110 148 -10 27 -26 42 -82
72 -59 32 -70 43 -73 67 -4 40 20 60 53 45 15 -7 25 -20 25 -32 0 -17 7 -20
40 -20 37 0 40 2 40 28 0 15 -11 40 -24 56 -20 26 -31 30 -82 33 -46 3 -66 0
-89 -15z"/>
<path d="M3938 2714 c-47 -25 -58 -61 -58 -184 0 -160 28 -200 140 -200 45 0
56 4 80 30 26 28 43 73 32 85 -3 3 -20 5 -38 5 -23 0 -37 -6 -44 -20 -14 -27
-65 -27 -80 -1 -5 11 -10 29 -10 40 0 20 6 21 90 21 l90 0 0 78 c0 42 -6 88
-13 102 -26 53 -130 77 -189 44z m114 -99 c10 -39 4 -45 -48 -45 -42 0 -44 1
-44 29 0 62 76 74 92 16z"/>
<path d="M2102 2573 c1 -155 6 -184 40 -220 23 -25 84 -31 119 -13 13 8 19 7
19 0 0 -7 15 -10 38 -8 l37 3 3 193 2 192 -40 0 -40 0 0 -144 c0 -118 -3 -147
-16 -160 -18 -19 -28 -20 -55 -6 -17 10 -19 23 -19 160 l0 150 -44 0 -45 0 1
-147z"/>
<path d="M4170 2710 c0 -12 33 -155 50 -220 5 -19 16 -62 23 -95 l14 -60 44 0
44 0 42 165 c64 248 62 222 13 218 -48 -3 -41 9 -80 -161 -7 -31 -15 -55 -18
-52 -3 2 -14 51 -26 107 l-21 103 -43 3 c-26 2 -42 -1 -42 -8z"/>
<path d="M3320 2370 l0 -40 100 0 100 0 0 40 0 40 -100 0 -100 0 0 -40z"/>
</g>
</svg>
