<?xml version="1.0" standalone="no"?>
<!DOCTYPE svg PUBLIC "-//W3C//DTD SVG 20010904//EN"
 "http://www.w3.org/TR/2001/REC-SVG-20010904/DTD/svg10.dtd">
<svg version="1.0" xmlns="http://www.w3.org/2000/svg"
 width="500.000000pt" height="500.000000pt" viewBox="0 0 500.000000 500.000000"
 preserveAspectRatio="xMidYMid meet">

<g transform="translate(0.000000,500.000000) scale(0.100000,-0.100000)"
fill="#000000" stroke="none">
<path d="M1870 4794 c-25 -2 -110 -9 -190 -14 -627 -47 -1002 -169 -1203 -391
-129 -141 -214 -389 -246 -711 -40 -400 -42 -461 -42 -1208 0 -635 10 -962 36
-1192 59 -515 216 -757 590 -907 215 -86 494 -137 945 -173 226 -17 1254 -17
1480 0 451 36 730 87 945 173 374 150 531 392 590 907 26 229 35 544 36 1185
0 783 -3 867 -47 1253 -44 393 -155 634 -359 779 -165 118 -395 196 -720 244
-327 49 -415 53 -1110 56 -363 1 -680 1 -705 -1z m1515 -68 c363 -37 599 -86
720 -149 63 -33 24 -32 -172 7 -199 39 -352 59 -588 78 -222 18 -1481 18
-1690 0 -228 -19 -453 -50 -617 -83 -173 -35 -208 -34 -128 4 119 56 323 100
613 132 266 29 405 33 1057 30 507 -2 679 -6 805 -19z m-781 -665 c77 -34
1170 -669 1213 -706 23 -19 52 -56 65 -83 l23 -47 3 -647 c2 -388 -1 -683 -7
-737 -10 -89 -33 -157 -51 -146 -5 3 -29 -10 -53 -28 -25 -19 -127 -82 -228
-139 -101 -58 -350 -202 -554 -319 -203 -117 -392 -221 -420 -232 -71 -27
-151 -19 -235 23 -71 36 -190 106 -258 153 -24 16 -55 32 -70 36 -45 12 -36
30 33 62 94 45 121 40 281 -55 71 -42 141 -76 155 -76 14 0 160 78 339 181
672 387 836 482 853 497 16 14 17 61 17 718 l0 703 -42 29 c-93 63 -1128 653
-1157 658 -25 5 -66 -15 -283 -139 -597 -342 -856 -492 -895 -519 l-43 -29 0
-700 0 -701 23 -19 c32 -29 292 -177 352 -201 95 -38 188 -15 232 57 17 28 18
73 23 697 5 654 5 667 26 694 25 34 63 45 110 32 67 -18 65 2 62 -756 -3 -628
-5 -680 -22 -725 -10 -28 -22 -44 -29 -40 -6 4 -8 0 -4 -10 3 -9 3 -16 -1 -14
-4 1 -32 -17 -63 -40 -132 -101 -285 -105 -473 -14 -99 48 -278 153 -328 193
-21 17 -43 26 -49 22 -7 -4 -9 -3 -6 3 4 6 0 13 -8 16 -37 15 -40 68 -40 797
0 790 -3 759 73 833 34 33 1100 658 1217 713 64 30 154 32 219 5z m-2259 -246
c-38 -300 -49 -608 -49 -1355 1 -716 16 -1125 50 -1330 3 -22 2 -31 -4 -25
-14 14 -40 161 -51 290 -25 274 -33 636 -28 1288 5 666 13 857 42 1075 14 100
51 249 60 240 2 -1 -7 -84 -20 -183z m4334 35 c44 -232 61 -597 61 -1330 0
-305 -5 -661 -11 -790 -12 -266 -40 -543 -63 -610 l-15 -45 5 45 c43 389 63
1196 46 1865 -14 550 -23 682 -67 985 -5 35 -5 35 9 10 8 -14 24 -73 35 -130z
m-1586 -744 c169 -47 277 -145 307 -280 6 -29 7 -54 0 -71 -8 -22 -15 -25 -57
-25 -43 0 -109 24 -136 50 -7 6 -14 27 -16 52 -1 5 -17 26 -37 48 -27 30 -52
45 -98 59 -83 25 -196 34 -286 22 -159 -22 -204 -50 -216 -134 -10 -70 -6 -98
19 -125 29 -31 91 -48 332 -88 316 -52 413 -83 482 -156 51 -53 73 -112 73
-200 0 -103 -26 -175 -78 -211 -149 -105 -197 -127 -325 -147 -97 -16 -329 -8
-412 14 -151 41 -304 152 -331 242 -30 99 -8 144 69 144 61 0 87 -18 124 -85
68 -122 137 -155 339 -163 153 -5 248 8 314 44 67 37 84 66 88 151 4 66 2 74
-21 97 -37 37 -139 64 -367 97 -224 33 -325 61 -404 114 -102 67 -121 102
-120 221 0 126 69 231 192 293 90 46 184 61 352 57 102 -2 175 -9 213 -20z"/>
</g>
</svg>
