<?xml version="1.0" standalone="no"?>
<!DOCTYPE svg PUBLIC "-//W3C//DTD SVG 20010904//EN"
 "http://www.w3.org/TR/2001/REC-SVG-20010904/DTD/svg10.dtd">
<svg version="1.0" xmlns="http://www.w3.org/2000/svg"
 width="500.000000pt" height="500.000000pt" viewBox="0 0 500.000000 500.000000"
 preserveAspectRatio="xMidYMid meet">

<g transform="translate(0.000000,500.000000) scale(0.100000,-0.100000)"
fill="#000000" stroke="none">
<path d="M2275 4510 c-237 -12 -395 -46 -541 -115 -62 -30 -103 -57 -132 -89
-44 -47 -50 -50 -30 -13 11 21 10 21 -7 7 -17 -14 -18 -13 -12 3 5 13 3 17 -5
15 -25 -8 -48 -108 -58 -246 -12 -164 -13 -452 -2 -469 6 -10 123 -13 507 -15
l500 -3 0 -72 c0 -40 0 -74 0 -75 0 -1 -342 -5 -760 -8 -725 -6 -763 -7 -831
-26 -39 -12 -94 -34 -124 -50 -54 -29 -147 -112 -189 -169 -12 -16 -20 -25
-17 -18 9 17 -4 43 -21 43 -8 0 -12 -4 -8 -9 3 -5 -2 -17 -11 -25 -8 -9 -12
-16 -7 -16 4 0 3 -4 -3 -8 -19 -12 -63 -147 -90 -275 -20 -97 -27 -162 -31
-317 -8 -290 19 -524 84 -722 79 -240 201 -365 409 -418 63 -16 111 -20 264
-20 l187 0 6 243 c8 318 30 421 118 558 83 127 188 205 339 250 72 21 97 22
625 29 458 6 563 11 629 25 115 24 180 51 249 103 110 83 172 202 196 377 17
117 14 1030 -3 1125 -15 82 -52 180 -69 180 -6 0 -8 3 -5 6 8 7 -25 42 -34 37
-14 -7 -9 -36 10 -57 9 -12 -4 -2 -29 20 -90 81 -234 151 -368 179 -154 31
-493 48 -736 35z m-270 -345 c25 -14 49 -39 59 -59 16 -33 16 -37 -4 -79 -12
-26 -19 -59 -18 -82 3 -38 1 -41 -42 -62 -53 -28 -93 -29 -140 -5 -29 14 -34
22 -32 44 2 16 -9 48 -28 82 -35 61 -35 85 -1 128 48 60 136 74 206 33z"/>
<path d="M586 3203 c-6 -14 -5 -15 5 -6 7 7 10 15 7 18 -3 3 -9 -2 -12 -12z"/>
<path d="M4329 1593 l-24 -28 28 24 c15 14 27 26 27 28 0 8 -8 1 -31 -24z"/>
<path d="M3369 523 c-13 -16 -12 -17 4 -4 16 13 21 21 13 21 -2 0 -10 -8 -17
-17z"/>
</g>
</svg>
