<?xml version="1.0" standalone="no"?>
<!DOCTYPE svg PUBLIC "-//W3C//DTD SVG 20010904//EN"
 "http://www.w3.org/TR/2001/REC-SVG-20010904/DTD/svg10.dtd">
<svg version="1.0" xmlns="http://www.w3.org/2000/svg"
 width="500.000000pt" height="500.000000pt" viewBox="0 0 500.000000 500.000000"
 preserveAspectRatio="xMidYMid meet">

<g transform="translate(0.000000,500.000000) scale(0.100000,-0.100000)"
fill="#000000" stroke="none">
<path d="M1780 4789 c-702 -48 -1094 -168 -1303 -400 -129 -141 -214 -389
-246 -711 -40 -399 -42 -454 -42 -1204 0 -639 10 -966 36 -1196 59 -515 216
-757 590 -907 215 -86 495 -137 945 -173 226 -17 1255 -17 1480 0 451 36 730
87 945 173 374 150 531 392 590 907 26 229 35 544 36 1185 0 782 -3 866 -47
1253 -83 734 -369 955 -1374 1060 -123 13 -291 17 -815 19 -363 2 -721 -1
-795 -6z m1605 -63 c364 -37 600 -86 720 -149 63 -33 19 -33 -148 2 -170 36
-387 65 -612 83 -225 18 -1470 18 -1690 0 -229 -19 -437 -47 -613 -83 -84 -17
-160 -28 -170 -26 -29 7 105 63 218 91 133 33 319 61 535 81 250 22 255 22
955 20 510 -2 679 -6 805 -19z m-3040 -916 c-13 -102 -29 -291 -36 -420 -17
-304 -17 -1517 -1 -1805 12 -212 28 -405 37 -460 3 -18 2 -26 -4 -20 -13 14
-39 163 -50 290 -25 274 -33 636 -28 1288 5 663 13 858 42 1070 13 98 51 254
60 245 2 -1 -7 -86 -20 -188z m4334 40 c44 -232 61 -597 61 -1332 0 -579 -10
-912 -35 -1158 -14 -129 -42 -286 -51 -278 -1 2 3 66 11 143 38 382 54 1228
36 1843 -14 464 -25 618 -66 902 -5 35 -5 35 9 10 8 -14 24 -73 35 -130z
m-1417 33 c98 -44 163 -143 194 -293 14 -71 16 -113 10 -260 -10 -221 -9 -238
12 -274 18 -30 50 -49 226 -133 172 -81 304 -196 351 -308 10 -24 17 -67 18
-106 0 -110 -59 -214 -172 -302 -70 -54 -87 -65 -76 -47 5 8 -5 4 -22 -8 -29
-21 -128 -69 -256 -126 -31 -14 -56 -29 -55 -33 1 -4 -6 -21 -16 -36 -17 -25
-18 -39 -10 -155 22 -316 -8 -491 -106 -602 -12 -14 -19 -19 -15 -13 3 7 -16
0 -42 -17 -119 -73 -255 -62 -448 34 -60 31 -155 90 -210 132 -55 41 -111 80
-124 85 -27 11 -42 3 -153 -82 -154 -118 -304 -189 -441 -210 -60 -10 -82 -9
-136 5 -34 9 -75 24 -90 34 -14 11 -33 21 -42 25 -29 10 -70 73 -96 149 -34
95 -42 298 -20 457 16 111 15 123 -17 160 -12 14 -15 21 -6 17 8 -4 4 1 -10
13 -14 11 -63 36 -110 56 -47 20 -109 50 -139 67 -29 16 -63 31 -75 34 -11 2
-28 12 -37 23 -9 11 -19 18 -22 15 -3 -3 -35 23 -71 59 -88 86 -126 165 -126
262 0 190 160 343 513 490 99 41 111 60 103 165 -25 340 -17 443 44 567 114
231 390 231 718 -1 121 -86 142 -96 196 -96 38 0 56 8 123 55 164 115 284 179
395 210 71 20 180 14 240 -12z"/>
<path d="M1835 3792 c-66 -11 -125 -73 -152 -159 -21 -68 -28 -256 -13 -350
28 -181 96 -212 342 -157 107 24 139 45 216 136 163 196 165 203 101 273 -125
136 -392 275 -494 257z"/>
<path d="M3045 3783 c-27 -9 -52 -19 -55 -23 -3 -4 -30 -20 -60 -35 -133 -67
-272 -183 -286 -240 -9 -37 11 -76 92 -176 115 -144 141 -167 198 -178 153
-30 296 -44 321 -33 62 28 91 159 83 366 -6 139 -24 203 -78 271 -53 67 -110
79 -215 48z"/>
<path d="M2414 3268 c-51 -45 -62 -78 -34 -100 18 -15 42 -18 124 -18 157 0
179 14 124 76 -69 78 -153 95 -214 42z"/>
<path d="M2281 3030 c-51 -11 -85 -45 -166 -166 -79 -118 -132 -221 -150 -292
-27 -103 -1 -182 125 -393 85 -140 106 -166 143 -178 48 -14 287 -22 420 -13
116 8 118 9 153 43 38 37 138 198 217 349 57 109 58 129 9 231 -43 89 -187
327 -217 359 -14 15 -22 29 -19 33 4 4 -6 12 -22 18 -36 15 -431 22 -493 9z
m329 -310 c131 -67 161 -249 61 -361 -22 -24 -48 -43 -66 -46 -48 -9 -205 -11
-200 -2 3 4 -2 10 -11 13 -9 4 -13 2 -8 -5 17 -29 -47 26 -69 59 -56 81 -62
157 -21 240 58 116 197 161 314 102z"/>
<path d="M1847 2979 c-67 -16 -82 -35 -80 -99 1 -41 42 -139 66 -159 15 -12
20 -9 44 16 45 48 114 188 110 220 -3 26 -7 28 -53 30 -27 1 -66 -3 -87 -8z"/>
<path d="M3011 2977 c-17 -21 -9 -44 50 -148 77 -135 103 -147 139 -64 37 86
42 122 25 159 -20 42 -53 57 -135 63 -52 4 -68 2 -79 -10z"/>
<path d="M1496 2879 c-26 -4 -99 -33 -162 -63 -91 -45 -125 -68 -174 -118 -90
-92 -113 -136 -108 -203 6 -68 40 -119 126 -191 101 -83 276 -171 361 -181 65
-7 77 7 141 168 64 159 70 184 58 250 -13 74 -93 268 -126 305 -33 38 -53 44
-116 33z"/>
<path d="M3386 2852 c-28 -41 -66 -127 -105 -241 -35 -102 -31 -136 39 -306
33 -82 67 -157 75 -165 70 -69 482 155 540 294 34 80 17 138 -68 238 -78 90
-290 206 -396 215 l-57 5 -28 -40z"/>
<path d="M1837 2343 c-12 -20 -57 -177 -57 -198 0 -13 5 -35 12 -49 21 -47
159 -94 194 -66 22 19 12 48 -62 177 -35 62 -64 117 -64 122 0 13 -17 23 -23
14z"/>
<path d="M3121 2273 c-31 -37 -85 -132 -110 -192 -13 -31 -13 -35 4 -47 31
-23 143 3 187 43 27 24 23 99 -8 167 -14 30 -29 58 -34 61 -5 3 -22 -11 -39
-32z"/>
<path d="M1725 1921 c-15 -6 -26 -29 -40 -82 -16 -61 -20 -106 -20 -249 0
-158 3 -180 23 -232 28 -70 84 -123 139 -133 85 -14 242 43 387 139 92 62 152
120 161 156 7 30 -14 63 -137 218 -49 61 -88 115 -88 121 0 16 -60 29 -231 51
-175 22 -166 22 -194 11z"/>
<path d="M3025 1905 c-109 -17 -153 -28 -160 -39 -5 -9 -56 -78 -112 -153
-104 -138 -125 -183 -104 -221 24 -46 162 -147 279 -206 257 -129 380 -62 414
224 13 112 -1 291 -27 343 -8 17 -15 36 -15 43 0 20 -34 34 -82 33 -24 -1
-110 -11 -193 -24z"/>
<path d="M2386 1861 c-40 -8 -42 -39 -5 -94 40 -60 94 -107 124 -107 31 0 73
37 118 102 43 63 42 93 -5 102 -38 8 -193 6 -232 -3z"/>
</g>
</svg>
