<?xml version="1.0" standalone="no"?>
<!DOCTYPE svg PUBLIC "-//W3C//DTD SVG 20010904//EN"
 "http://www.w3.org/TR/2001/REC-SVG-20010904/DTD/svg10.dtd">
<svg version="1.0" xmlns="http://www.w3.org/2000/svg"
 width="500.000000pt" height="500.000000pt" viewBox="0 0 500.000000 500.000000"
 preserveAspectRatio="xMidYMid meet">

<g transform="translate(0.000000,500.000000) scale(0.100000,-0.100000)"
fill="#000000" stroke="none">
<path d="M2049 3117 c-96 -22 -243 -125 -295 -208 -35 -56 -30 -59 19 -12 63
62 155 122 211 138 58 18 222 20 295 4 70 -15 150 -69 286 -196 274 -253 412
-320 690 -330 117 -4 157 -2 239 16 169 35 310 115 406 232 l44 54 -59 -56
c-156 -145 -326 -210 -555 -211 -177 -2 -310 29 -450 105 -100 53 -131 78
-290 232 -144 139 -193 177 -279 214 -67 28 -182 36 -262 18z"/>
<path d="M1287 2190 c-37 -11 -91 -33 -120 -50 -65 -36 -160 -116 -192 -161
-13 -19 -29 -40 -36 -47 -6 -7 -8 -16 -5 -19 3 -3 25 12 48 33 24 22 63 54 88
71 83 57 108 62 275 64 148 1 156 0 207 -26 63 -32 110 -69 242 -193 236 -224
398 -299 666 -309 261 -10 452 57 605 211 46 47 92 104 108 136 15 30 20 44
10 30 -40 -57 -155 -167 -207 -199 -176 -106 -407 -137 -621 -82 -125 32 -128
33 -160 56 -16 13 -40 26 -52 30 -13 3 -23 10 -23 15 0 5 -7 7 -15 4 -8 -4
-15 -1 -15 5 0 6 -24 26 -54 45 -29 19 -60 43 -67 54 -8 10 -24 22 -36 26 -13
4 -23 12 -23 18 0 20 -236 242 -243 228 -1 -3 -16 5 -34 18 -17 12 -36 22 -42
22 -6 0 -11 5 -11 11 0 5 -4 8 -8 5 -5 -3 -19 1 -33 7 -40 21 -175 19 -252 -3z"/>
<path d="M650 454 c0 -9 141 -74 220 -102 334 -117 847 -172 1630 -172 760 0
1255 50 1590 160 102 33 240 93 240 104 0 2 -43 -11 -95 -30 -255 -91 -610
-149 -1065 -175 -295 -16 -1349 -6 -1570 15 -401 39 -656 89 -872 174 -43 16
-78 28 -78 26z"/>
</g>
</svg>
