<?xml version="1.0" standalone="no"?>
<!DOCTYPE svg PUBLIC "-//W3C//DTD SVG 20010904//EN"
 "http://www.w3.org/TR/2001/REC-SVG-20010904/DTD/svg10.dtd">
<svg version="1.0" xmlns="http://www.w3.org/2000/svg"
 width="500.000000pt" height="500.000000pt" viewBox="0 0 500.000000 500.000000"
 preserveAspectRatio="xMidYMid meet">

<g transform="translate(0.000000,500.000000) scale(0.100000,-0.100000)"
fill="#000000" stroke="none">
<path d="M1746 3115 c-3 -8 -1 -15 3 -15 5 0 11 7 15 15 3 8 1 15 -3 15 -5 0
-11 -7 -15 -15z"/>
<path d="M1095 3110 c-3 -5 1 -10 9 -10 9 0 16 5 16 10 0 6 -4 10 -9 10 -6 0
-13 -4 -16 -10z"/>
<path d="M1547 3114 c-6 -6 16 -34 27 -34 2 0 4 9 3 20 -1 19 -17 27 -30 14z"/>
<path d="M2832 3093 c-2 -25 -1 -26 14 -11 9 9 13 21 10 27 -12 19 -22 12 -24
-16z"/>
<path d="M1975 3100 c-3 -5 -1 -10 4 -10 6 0 11 5 11 10 0 6 -2 10 -4 10 -3 0
-8 -4 -11 -10z"/>
<path d="M1115 3077 c-5 -7 -18 -23 -29 -34 -18 -21 -18 -22 2 -20 11 0 18 5
15 10 -2 4 5 16 16 26 12 10 21 21 21 25 0 10 -14 6 -25 -7z"/>
<path d="M1360 3079 c0 -5 5 -7 10 -4 6 3 10 8 10 11 0 2 -4 4 -10 4 -5 0 -10
-5 -10 -11z"/>
<path d="M928 3063 c7 -3 16 -2 19 1 4 3 -2 6 -13 5 -11 0 -14 -3 -6 -6z"/>
<path d="M1184 3048 c-5 -8 -2 -9 9 -5 10 3 17 3 17 -2 0 -4 12 -13 27 -20 27
-12 27 -12 10 6 -9 11 -15 22 -12 24 2 3 -7 6 -20 7 -13 1 -27 -4 -31 -10z"/>
<path d="M3269 3029 c-7 -4 -17 -5 -23 -2 -5 3 -6 1 -2 -5 4 -6 13 -9 21 -5
10 3 15 -2 15 -16 0 -12 4 -21 8 -21 12 0 54 41 49 47 -9 9 -55 10 -68 2z"/>
<path d="M764 3012 c7 -11 -8 -16 -44 -14 -8 0 -22 -4 -32 -9 -13 -7 -25 -5
-40 6 -28 19 -38 19 -38 1 0 -8 14 -19 31 -25 25 -9 29 -14 24 -33 -5 -17 -4
-19 4 -8 5 8 13 11 17 7 10 -10 -2 -19 -28 -22 -38 -4 -39 -5 -34 -14 3 -5 -1
-11 -9 -15 -17 -6 -29 9 -21 29 3 9 13 12 23 9 16 -5 16 -4 -1 6 -27 18 -64
-4 -60 -36 1 -16 -7 -32 -28 -49 -16 -14 -25 -25 -19 -25 5 0 8 -9 6 -21 -2
-12 2 -28 10 -36 19 -18 19 -39 0 -46 -8 -3 -12 -15 -10 -25 2 -11 0 -36 -5
-56 -6 -28 -5 -36 6 -36 8 0 14 -4 14 -9 0 -5 3 -16 6 -24 3 -8 -2 -22 -11
-31 -9 -9 -13 -20 -10 -26 3 -5 -1 -10 -9 -10 -8 0 -15 -8 -15 -17 0 -34 -8
-80 -15 -91 -4 -7 -2 -12 3 -12 10 0 15 14 12 33 -2 13 16 7 30 -10 12 -14 12
-16 0 -12 -8 3 -23 -3 -33 -13 -16 -16 -17 -21 -4 -41 13 -20 12 -27 -10 -72
-16 -33 -26 -70 -27 -107 -1 -32 -6 -58 -10 -58 -4 0 -3 -9 3 -20 6 -12 9 -45
6 -75 -2 -30 0 -57 5 -61 5 -3 4 -14 -3 -27 -7 -12 -13 -42 -15 -67 -1 -25 -9
-63 -17 -84 -7 -22 -11 -51 -7 -65 4 -14 5 -55 3 -91 -15 -264 -6 -516 24
-688 9 -51 14 -95 12 -98 -12 -12 -37 11 -61 54 -61 114 -107 330 -133 637
-32 362 -31 358 -34 125 -1 -118 -2 -219 -1 -224 1 -4 4 -47 6 -95 6 -121 39
-300 75 -410 78 -239 197 -381 410 -490 235 -120 516 -179 1055 -223 218 -17
1252 -17 1470 0 539 44 820 103 1055 223 213 109 329 247 410 489 56 170 72
291 77 605 2 163 0 275 -5 267 -5 -7 -9 -38 -10 -70 -8 -221 -56 -569 -99
-707 -38 -120 -88 -203 -110 -181 -3 2 2 42 10 88 27 148 39 350 37 628 -2
265 -12 386 -31 374 -5 -3 -9 1 -10 8 0 7 -3 24 -5 38 -2 14 -4 31 -4 38 4
109 -4 224 -16 243 -11 16 -12 52 -2 59 8 7 18 52 23 107 2 24 6 47 9 52 4 5
2 12 -4 16 -12 7 -11 92 1 115 15 32 -38 228 -61 222 -6 -1 -9 2 -5 8 3 5 12
10 19 10 9 0 12 9 8 25 -4 24 -5 24 -18 8 -13 -17 -14 -17 -7 1 4 13 3 17 -5
12 -7 -4 -12 -1 -12 8 0 9 5 16 12 16 25 0 -4 13 -34 16 -18 1 -37 3 -43 5 -5
2 -19 -1 -30 -7 -11 -5 -36 -10 -55 -9 -19 0 -38 -3 -41 -7 -3 -5 -27 -10 -54
-12 -26 -3 -53 -10 -59 -16 -15 -15 -25 -13 -51 16 -19 21 -25 23 -25 10 0 -9
-4 -16 -10 -16 -5 0 -6 -7 -3 -17 4 -9 2 -14 -3 -10 -5 3 -14 -6 -21 -19 -9
-20 -8 -26 5 -35 14 -9 14 -9 -3 -3 -11 3 -31 8 -45 10 l-25 4 25 -9 c101 -33
114 -62 108 -228 -6 -154 -11 -158 -116 -120 -170 63 -283 79 -394 58 -202
-40 -264 -167 -139 -284 36 -34 103 -73 253 -146 229 -112 309 -170 376 -271
55 -81 82 -171 82 -269 0 -253 -145 -425 -418 -493 -75 -19 -114 -22 -282 -22
-164 0 -210 3 -288 22 -123 28 -179 54 -192 87 -15 40 -13 300 3 313 17 13 78
21 70 8 -4 -5 1 -7 11 -3 11 5 15 3 10 -5 -5 -8 -2 -9 9 -5 10 4 16 2 14 -5
-3 -16 138 -76 220 -93 126 -27 277 -14 353 31 54 31 75 68 75 129 0 44 -5 59
-31 92 -44 55 -121 104 -264 168 -288 130 -415 251 -465 440 -62 241 82 485
341 576 102 36 198 49 362 49 85 0 153 3 150 6 -11 10 -296 5 -359 -6 -37 -7
-64 -8 -68 -2 -3 5 -19 12 -36 16 -17 4 -49 27 -73 54 -27 30 -45 42 -48 35
-8 -18 -31 -16 -38 2 -3 8 -11 15 -18 15 -10 0 -10 -2 1 -9 10 -6 10 -10 1
-16 -9 -6 -9 -10 1 -16 10 -7 8 -8 -8 -6 -11 2 -28 8 -36 15 -8 7 -23 9 -32 5
-13 -4 -16 -3 -11 5 4 7 3 12 -3 12 -5 0 -14 -7 -19 -16 -7 -13 -13 -14 -28
-6 -10 6 -13 12 -6 12 6 0 12 4 12 9 0 14 -39 9 -44 -6 -8 -20 -32 -16 -48 8
l-14 21 -1 -21 c-1 -12 5 -25 13 -28 11 -4 12 -9 3 -19 -15 -19 -26 -18 -46 5
-15 18 -18 18 -39 5 -16 -11 -34 -13 -61 -8 -21 4 -35 3 -31 -1 4 -4 -2 -21
-14 -37 -17 -25 -18 -32 -7 -39 8 -4 14 -12 14 -16 1 -4 7 -19 15 -33 22 -37
20 -218 -2 -252 -22 -34 -50 -38 -263 -38 -165 0 -185 -2 -206 -19 l-24 -19
-5 -681 c-5 -635 -6 -681 -23 -698 -15 -15 -40 -18 -165 -21 -174 -4 -197 2
-211 55 -7 25 -11 264 -11 691 0 639 0 652 -20 672 -19 19 -33 20 -224 20
-202 0 -205 0 -233 24 -28 24 -28 25 -28 141 0 116 0 117 28 141 l29 25 669
-3 c367 -2 661 0 651 4 -9 4 -311 7 -669 7 -428 1 -653 4 -653 11 0 6 -5 10
-11 10 -8 0 -8 -4 0 -14 9 -10 8 -15 -4 -19 -8 -4 -14 -3 -13 1 3 9 -21 53
-38 69 -17 17 -35 17 -28 0 3 -8 -2 -14 -13 -14 -22 0 -45 22 -35 32 4 5 -1 5
-10 2 -9 -3 -19 -1 -22 6 -3 9 -7 9 -14 -1 -7 -10 -15 -9 -40 5 -18 10 -30 24
-27 31 2 6 0 12 -5 12 -6 0 -10 -7 -10 -16 0 -8 -4 -12 -10 -9 -5 3 -10 2 -10
-3 0 -16 -38 -8 -62 12 -13 12 -23 15 -26 8 -2 -6 -10 -8 -18 -5 -7 3 -11 10
-7 17 16 25 13 46 -6 46 -25 0 -38 -20 -14 -21 10 0 13 -3 6 -5 -7 -3 -9 -13
-6 -22 6 -15 4 -15 -10 -4 -9 8 -21 11 -27 7 -5 -3 -10 -2 -10 4 0 5 6 12 13
15 6 3 1 3 -12 0 -13 -4 -21 -2 -18 3 4 5 -1 10 -9 10 -9 0 -13 -6 -10 -14 3
-8 2 -12 -3 -8 -5 3 -11 2 -14 -2 -2 -5 -2 -3 -1 4 2 7 -1 15 -6 18 -5 3 -10
-7 -12 -22 -2 -16 -9 -29 -15 -29 -42 -4 -47 -6 -35 -11 6 -2 12 -9 12 -14 0
-6 -4 -8 -9 -4 -5 3 -23 -9 -40 -27 -17 -18 -31 -28 -31 -21 0 6 5 15 11 18 6
4 8 13 5 21 -3 8 1 14 9 14 18 0 20 31 3 48 -15 15 -32 16 -22 1 4 -7 -3 -6
-17 2 -21 12 -22 14 -6 17 25 5 78 -18 71 -30 -4 -6 4 -4 17 3 13 7 27 13 30
12 3 -1 6 5 6 13 0 18 -7 18 -22 -2 -9 -14 -16 -14 -34 -5 -12 7 -19 16 -17
20 3 4 -6 6 -20 3 -16 -3 -30 1 -35 9 -6 10 -9 10 -9 2 0 -7 -5 -13 -11 -13
-5 0 -8 4 -4 9 3 5 0 13 -6 17 -8 4 -9 3 -5 -4z m12 -46 c11 -15 11 -22 1 -35
-8 -10 -9 -13 0 -8 6 4 14 3 18 -2 6 -10 -18 -8 -58 5 -19 6 -20 5 -8 -10 7
-9 11 -16 8 -16 -3 0 -13 -3 -22 -6 -15 -6 -16 -2 -12 30 3 20 0 39 -5 42 -15
9 6 20 38 19 14 0 32 -9 40 -19z m-191 -86 c3 -5 1 -10 -4 -10 -6 0 -11 5 -11
10 0 6 2 10 4 10 3 0 8 -4 11 -10z m210 0 c3 -5 2 -10 -4 -10 -5 0 -13 5 -16
10 -3 6 -2 10 4 10 5 0 13 -4 16 -10z m2632 -66 c-3 -3 -12 -4 -19 -1 -8 3 -5
6 6 6 11 1 17 -2 13 -5z m-2927 -548 c0 -3 -4 -8 -10 -11 -5 -3 -10 -1 -10 4
0 6 5 11 10 11 6 0 10 -2 10 -4z"/>
<path d="M3226 2968 c3 -4 9 -8 15 -8 5 0 9 4 9 8 0 5 -7 9 -15 9 -8 0 -12 -4
-9 -9z"/>
<path d="M1130 2960 c0 -5 10 -10 23 -10 18 0 19 2 7 10 -19 13 -30 13 -30 0z"/>
<path d="M1208 2963 c7 -3 16 -2 19 1 4 3 -2 6 -13 5 -11 0 -14 -3 -6 -6z"/>
<path d="M4233 2924 c0 -9 6 -13 14 -9 8 3 17 5 19 5 14 0 1 16 -14 17 -10 1
-19 -5 -19 -13z"/>
<path d="M2007 2863 c-3 -3 -66 -6 -139 -8 -73 -2 -146 -8 -163 -13 -21 -7
114 -10 435 -10 304 0 453 3 430 9 -42 11 -387 15 -412 4 -11 -4 -18 -3 -18 3
0 7 -14 9 -34 5 -19 -3 -48 -1 -65 5 -16 6 -32 8 -34 5z"/>
<path d="M3893 2823 c9 -2 25 -2 35 0 9 3 1 5 -18 5 -19 0 -27 -2 -17 -5z"/>
<path d="M3958 2813 c6 -2 18 -2 25 0 6 3 1 5 -13 5 -14 0 -19 -2 -12 -5z"/>
<path d="M4772 1825 c0 -16 2 -22 5 -12 2 9 2 23 0 30 -3 6 -5 -1 -5 -18z"/>
</g>
</svg>
